Tum Karo Vaada - Kalyug Ka Krishen  [1993] Hindi Bollywood VCDRip ShahBros

General
Complete name                            : Tum Karo Vaada - Kalyug Ka Krishen  [1993] Hindi Bollywood VCDRip ShahBros.mp4
Format                                   : MPEG-4
Format profile                           : Base Media / Version 2
Codec ID                                 : mp42
File size                                : 1.07 GiB
Duration                                 : 2h 13mn
Overall bit rate mode                    : Variable
Overall bit rate                         : 1 149 Kbps
Encoded date                             : UTC 2012-05-21 08:13:02
Tagged date                              : UTC 2012-05-21 08:13:38
Writing application                      : mp4creator 1.4.4

Video
ID                                       : 1
Format                                   : AVC
Format/Info                              : Advanced Video Codec
Format profile                           : Baseline@L1.3
Format settings, CABAC                   : No
Format settings, ReFrames                : 2 frames
Codec ID                                 : avc1
Codec ID/Info                            : Advanced Video Coding
Duration                                 : 2h 13mn
Bit rate mode                            : Variable
Bit rate                                 : 1 024 Kbps
Width                                    : 720 pixels
Height                                   : 480 pixels
Display aspect ratio                     : 3:2
Frame rate mode                          : Constant
Frame rate                               : 30.000 fps
Standard                                 : NTSC
Color space                              : YUV
Chroma subsampling                       : 4:2:0
Bit depth                                : 8 bits
Scan type                                : Progressive
Bits/(Pixel*Frame)                       : 0.099
Stream size                              : 978 MiB (89%)
Language                                 : English
Encoded date                             : UTC 2012-05-21 08:13:02
Tagged date                              : UTC 2012-05-21 08:13:28

Audio
ID                                       : 2
Format                                   : MPEG Audio
Format version                           : Version 1
Format profile                           : Layer 3
Mode                                     : Joint stereo
Mode extension                           : MS Stereo
Codec ID                                 : 6B
Duration                                 : 2h 13mn
Bit rate mode                            : Variable
Bit rate                                 : 122 Kbps
Maximum bit rate                         : 155 Kbps
Channel(s)                               : 2 channels
Sampling rate                            : 44.1 KHz
Compression mode                         : Lossy
Stream size                              : 116 MiB (11%)
Language                                 : English
Encoded date                             : UTC 2012-05-21 08:13:32
Tagged date                              : UTC 2012-05-21 08:13:38
Material_Duration                        : 8008751
Material_StreamSize                      : 122153008

Seed And Enjoy :)